# xmcd CD database file
#
# Track frame offsets:
#	183
#	19683
#	59408
#	82183
#	109033
#	137370
#	169045
#
# Disc length: 2539 seconds
#
# Revision: 0
# Processed by: cddbd v1.4PL0 Copyright (c) Steve Scherf et al.
# Submitted via: CDex 1.50beta10
#
DISCID=5309e907
DTITLE=Matial Solal - En Solo
DYEAR=1972
DGENRE=Jazz
TTITLE0=Ah! Npn!
TTITLE1=Mercredi 13
TTITLE2=What is this thing called love
TTITLE3=Jazz Frit
TTITLE4=Blues Antagoniste
TTITLE5=Darn That Dream
TTITLE6=Fa Mi Re Do
EXTD=YEAR: 1972
EXTT0=
EXTT1=
EXTT2=
EXTT3=
EXTT4=
EXTT5=
EXTT6=
PLAYORDER=
